<?xml version="1.0" encoding="UTF-8" standalone="no"?>
<!DOCTYPE svg PUBLIC "-//W3C//DTD SVG 1.1//EN"
 "http://www.w3.org/Graphics/SVG/1.1/DTD/svg11.dtd">
<!-- Generated by graphviz version 2.43.0 (0)
 -->
<!-- Title: erd Pages: 1 -->
<svg width="2162pt" height="325pt"
 viewBox="0.00 0.00 2162.00 325.00" xmlns="http://www.w3.org/2000/svg" xmlns:xlink="http://www.w3.org/1999/xlink">
<g id="graph0" class="graph" transform="scale(1 1) rotate(0) translate(4 321)">
<title>erd</title>
<polygon fill="white" stroke="transparent" points="-4,4 -4,-321 2158,-321 2158,4 -4,4"/>
<!-- fact_delivery_risk -->
<g id="node1" class="node">
<title>fact_delivery_risk</title>
<polygon fill="white" stroke="transparent" points="338,-167.5 338,-303.5 518,-303.5 518,-167.5 338,-167.5"/>
<polygon fill="#c44e52" stroke="transparent" points="339,-282.5 339,-302.5 517,-302.5 517,-282.5 339,-282.5"/>
<text text-anchor="start" x="373.5" y="-290.7" font-family="Helvetica,sans-Serif" font-weight="bold" font-size="11.00" fill="white">fact_delivery_risk</text>
<text text-anchor="start" x="343" y="-270.5" font-family="Helvetica,sans-Serif" font-size="10.00">FK year_id</text>
<text text-anchor="start" x="473" y="-270.8" font-family="Helvetica,sans-Serif" font-size="9.00" fill="#666666">INTEGER</text>
<text text-anchor="start" x="343" y="-251.5" font-family="Helvetica,sans-Serif" font-size="10.00">FK state_id</text>
<text text-anchor="start" x="473" y="-251.8" font-family="Helvetica,sans-Serif" font-size="9.00" fill="#666666">INTEGER</text>
<text text-anchor="start" x="343" y="-232.5" font-family="Helvetica,sans-Serif" font-size="10.00">FK delivery_method_id</text>
<text text-anchor="start" x="473" y="-232.8" font-family="Helvetica,sans-Serif" font-size="9.00" fill="#666666">INTEGER</text>
<text text-anchor="start" x="343" y="-213.5" font-family="Helvetica,sans-Serif" font-size="10.00">FK previous_cesarean_id</text>
<text text-anchor="start" x="473" y="-213.8" font-family="Helvetica,sans-Serif" font-size="9.00" fill="#666666">INTEGER</text>
<text text-anchor="start" x="343" y="-194.5" font-family="Helvetica,sans-Serif" font-size="10.00">FK bmi_id</text>
<text text-anchor="start" x="473" y="-194.8" font-family="Helvetica,sans-Serif" font-size="9.00" fill="#666666">INTEGER</text>
<text text-anchor="start" x="343" y="-175.5" font-family="Helvetica,sans-Serif" font-size="10.00">births</text>
<text text-anchor="start" x="473" y="-175.8" font-family="Helvetica,sans-Serif" font-size="9.00" fill="#666666">INTEGER</text>
<polygon fill="none" stroke="black" points="338,-167.5 338,-303.5 518,-303.5 518,-167.5 338,-167.5"/>
</g>
<!-- dim_year -->
<g id="node7" class="node">
<title>dim_year</title>
<polygon fill="white" stroke="transparent" points="1054,-23 1054,-64 1164,-64 1164,-23 1054,-23"/>
<polygon fill="#4c72b0" stroke="transparent" points="1055,-42.5 1055,-62.5 1163,-62.5 1163,-42.5 1055,-42.5"/>
<text text-anchor="start" x="1081" y="-50.7" font-family="Helvetica,sans-Serif" font-weight="bold" font-size="11.00" fill="white">dim_year</text>
<text text-anchor="start" x="1059" y="-30.5" font-family="Helvetica,sans-Serif" font-size="10.00">PK year_id</text>
<text text-anchor="start" x="1119" y="-30.8" font-family="Helvetica,sans-Serif" font-size="9.00" fill="#666666">INTEGER</text>
<polygon fill="none" stroke="black" points="1054,-23 1054,-64 1164,-64 1164,-23 1054,-23"/>
</g>
<!-- fact_delivery_risk&#45;&gt;dim_year -->
<g id="edge5" class="edge">
<title>fact_delivery_risk&#45;&gt;dim_year</title>
<path fill="none" stroke="#999999" stroke-width="0.8" d="M522.41,-163.42C529.51,-159.83 536.74,-156.63 544,-154 622.03,-125.73 845.98,-165.56 916,-121"/>
<path fill="none" stroke="#999999" stroke-width="0.8" d="M916,-120C959.78,-92.14 979.9,-106.48 1028,-87 1039.38,-82.39 1051.28,-76.68 1062.35,-70.97"/>
<polygon fill="#999999" stroke="#999999" stroke-width="0.8" points="1063.36,-72.81 1067.7,-68.17 1061.41,-69.09 1063.36,-72.81"/>
</g>
<!-- dim_state -->
<g id="node8" class="node">
<title>dim_state</title>
<polygon fill="white" stroke="transparent" points="662,-4 662,-83 778,-83 778,-4 662,-4"/>
<polygon fill="#4c72b0" stroke="transparent" points="663,-61.5 663,-81.5 777,-81.5 777,-61.5 663,-61.5"/>
<text text-anchor="start" x="689.5" y="-69.7" font-family="Helvetica,sans-Serif" font-weight="bold" font-size="11.00" fill="white">dim_state</text>
<text text-anchor="start" x="667" y="-49.5" font-family="Helvetica,sans-Serif" font-size="10.00">PK state_id</text>
<text text-anchor="start" x="733" y="-49.8" font-family="Helvetica,sans-Serif" font-size="9.00" fill="#666666">INTEGER</text>
<text text-anchor="start" x="667" y="-30.5" font-family="Helvetica,sans-Serif" font-size="10.00">state_name</text>
<text text-anchor="start" x="733" y="-30.8" font-family="Helvetica,sans-Serif" font-size="9.00" fill="#666666">TEXT</text>
<text text-anchor="start" x="667" y="-11.5" font-family="Helvetica,sans-Serif" font-size="10.00">state_code</text>
<text text-anchor="start" x="733" y="-11.8" font-family="Helvetica,sans-Serif" font-size="9.00" fill="#666666">TEXT</text>
<polygon fill="none" stroke="black" points="662,-4 662,-83 778,-83 778,-4 662,-4"/>
</g>
<!-- fact_delivery_risk&#45;&gt;dim_state -->
<g id="edge4" class="edge">
<title>fact_delivery_risk&#45;&gt;dim_state</title>
<path fill="none" stroke="#999999" stroke-width="0.8" d="M525.25,-163.4C531.47,-159.99 537.74,-156.82 544,-154 599.9,-128.76 640.24,-169.33 678,-121"/>
<path fill="none" stroke="#999999" stroke-width="0.8" d="M678,-120C684.62,-111.52 690.83,-101.87 696.34,-92.37"/>
<polygon fill="#999999" stroke="#999999" stroke-width="0.8" points="698.19,-93.36 699.32,-87.11 694.53,-91.29 698.19,-93.36"/>
</g>
<!-- dim_delivery_method -->
<g id="node9" class="node">
<title>dim_delivery_method</title>
<polygon fill="white" stroke="transparent" points="830.5,-13.5 830.5,-73.5 1001.5,-73.5 1001.5,-13.5 830.5,-13.5"/>
<polygon fill="#4c72b0" stroke="transparent" points="832,-52.5 832,-72.5 1001,-72.5 1001,-52.5 832,-52.5"/>
<text text-anchor="start" x="851.5" y="-60.7" font-family="Helvetica,sans-Serif" font-weight="bold" font-size="11.00" fill="white">dim_delivery_method</text>
<text text-anchor="start" x="836" y="-40.5" font-family="Helvetica,sans-Serif" font-size="10.00">PK delivery_method_id</text>
<text text-anchor="start" x="957" y="-40.8" font-family="Helvetica,sans-Serif" font-size="9.00" fill="#666666">INTEGER</text>
<text text-anchor="start" x="836" y="-21.5" font-family="Helvetica,sans-Serif" font-size="10.00">delivery_method_label</text>
<text text-anchor="start" x="957" y="-21.8" font-family="Helvetica,sans-Serif" font-size="9.00" fill="#666666">TEXT</text>
<polygon fill="none" stroke="black" points="830.5,-13.5 830.5,-73.5 1001.5,-73.5 1001.5,-13.5 830.5,-13.5"/>
</g>
<!-- fact_delivery_risk&#45;&gt;dim_delivery_method -->
<g id="edge3" class="edge">
<title>fact_delivery_risk&#45;&gt;dim_delivery_method</title>
<path fill="none" stroke="#999999" stroke-width="0.8" d="M523.18,-163.33C530.04,-159.81 537.01,-156.65 544,-154 601.96,-132.01 780.46,-167.89 821,-121"/>
<path fill="none" stroke="#999999" stroke-width="0.8" d="M821,-120C833.01,-106.11 847.85,-92.93 862.2,-81.58"/>
<polygon fill="#999999" stroke="#999999" stroke-width="0.8" points="863.61,-83.15 867.05,-77.81 861.03,-79.84 863.61,-83.15"/>
</g>
<!-- dim_bmi_category -->
<g id="node12" class="node">
<title>dim_bmi_category</title>
<polygon fill="white" stroke="transparent" points="240.5,-4 240.5,-83 361.5,-83 361.5,-4 240.5,-4"/>
<polygon fill="#4c72b0" stroke="transparent" points="242,-61.5 242,-81.5 361,-81.5 361,-61.5 242,-61.5"/>
<text text-anchor="start" x="246" y="-69.7" font-family="Helvetica,sans-Serif" font-weight="bold" font-size="11.00" fill="white">dim_bmi_category</text>
<text text-anchor="start" x="246" y="-49.5" font-family="Helvetica,sans-Serif" font-size="10.00">PK bmi_id</text>
<text text-anchor="start" x="310" y="-49.8" font-family="Helvetica,sans-Serif" font-size="9.00" fill="#666666">INTEGER</text>
<text text-anchor="start" x="246" y="-30.5" font-family="Helvetica,sans-Serif" font-size="10.00">bmi_label</text>
<text text-anchor="start" x="310" y="-30.8" font-family="Helvetica,sans-Serif" font-size="9.00" fill="#666666">TEXT</text>
<text text-anchor="start" x="246" y="-11.5" font-family="Helvetica,sans-Serif" font-size="10.00">sort_order</text>
<text text-anchor="start" x="310" y="-11.8" font-family="Helvetica,sans-Serif" font-size="9.00" fill="#666666">INTEGER</text>
<polygon fill="none" stroke="black" points="240.5,-4 240.5,-83 361.5,-83 361.5,-4 240.5,-4"/>
</g>
<!-- fact_delivery_risk&#45;&gt;dim_bmi_category -->
<g id="edge1" class="edge">
<title>fact_delivery_risk&#45;&gt;dim_bmi_category</title>
<path fill="none" stroke="#999999" stroke-width="0.8" d="M301,-120C292.99,-113.35 289.95,-103.57 289.56,-93.23"/>
<polygon fill="#999999" stroke="#999999" stroke-width="0.8" points="291.66,-93.11 289.63,-87.09 287.46,-93.07 291.66,-93.11"/>
</g>
<!-- dim_previous_cesarean -->
<g id="node15" class="node">
<title>dim_previous_cesarean</title>
<polygon fill="white" stroke="transparent" points="8,-13.5 8,-73.5 188,-73.5 188,-13.5 8,-13.5"/>
<polygon fill="#4c72b0" stroke="transparent" points="9,-52.5 9,-72.5 187,-72.5 187,-52.5 9,-52.5"/>
<text text-anchor="start" x="26.5" y="-60.7" font-family="Helvetica,sans-Serif" font-weight="bold" font-size="11.00" fill="white">dim_previous_cesarean</text>
<text text-anchor="start" x="13" y="-40.5" font-family="Helvetica,sans-Serif" font-size="10.00">PK previous_cesarean_id</text>
<text text-anchor="start" x="143" y="-40.8" font-family="Helvetica,sans-Serif" font-size="9.00" fill="#666666">INTEGER</text>
<text text-anchor="start" x="13" y="-21.5" font-family="Helvetica,sans-Serif" font-size="10.00">previous_cesarean_label</text>
<text text-anchor="start" x="143" y="-21.8" font-family="Helvetica,sans-Serif" font-size="9.00" fill="#666666">TEXT</text>
<polygon fill="none" stroke="black" points="8,-13.5 8,-73.5 188,-73.5 188,-13.5 8,-13.5"/>
</g>
<!-- fact_delivery_risk&#45;&gt;dim_previous_cesarean -->
<g id="edge2" class="edge">
<title>fact_delivery_risk&#45;&gt;dim_previous_cesarean</title>
<path fill="none" stroke="#999999" stroke-width="0.8" d="M350.21,-163.35C334.13,-149.1 317.16,-134.4 301,-121"/>
<path fill="none" stroke="#999999" stroke-width="0.8" d="M301,-120C299.8,-119.01 245.52,-98.84 193.4,-79.6"/>
<polygon fill="#999999" stroke="#999999" stroke-width="0.8" points="194.07,-77.61 187.72,-77.5 192.62,-81.55 194.07,-77.61"/>
</g>
<!-- fact_morbidity_age_bmi -->
<g id="node2" class="node">
<title>fact_morbidity_age_bmi</title>
<polygon fill="white" stroke="transparent" points="838.5,-167.5 838.5,-303.5 993.5,-303.5 993.5,-167.5 838.5,-167.5"/>
<polygon fill="#c44e52" stroke="transparent" points="840,-282.5 840,-302.5 993,-302.5 993,-282.5 840,-282.5"/>
<text text-anchor="start" x="844" y="-290.7" font-family="Helvetica,sans-Serif" font-weight="bold" font-size="11.00" fill="white">fact_morbidity_age_bmi</text>
<text text-anchor="start" x="844" y="-270.5" font-family="Helvetica,sans-Serif" font-size="10.00">FK year_id</text>
<text text-anchor="start" x="941" y="-270.8" font-family="Helvetica,sans-Serif" font-size="9.00" fill="#666666">INTEGER</text>
<text text-anchor="start" x="844" y="-251.5" font-family="Helvetica,sans-Serif" font-size="10.00">FK state_id</text>
<text text-anchor="start" x="941" y="-251.8" font-family="Helvetica,sans-Serif" font-size="9.00" fill="#666666">INTEGER</text>
<text text-anchor="start" x="844" y="-232.5" font-family="Helvetica,sans-Serif" font-size="10.00">FK age_group_id</text>
<text text-anchor="start" x="941" y="-232.8" font-family="Helvetica,sans-Serif" font-size="9.00" fill="#666666">INTEGER</text>
<text text-anchor="start" x="844" y="-213.5" font-family="Helvetica,sans-Serif" font-size="10.00">FK bmi_id</text>
<text text-anchor="start" x="941" y="-213.8" font-family="Helvetica,sans-Serif" font-size="9.00" fill="#666666">INTEGER</text>
<text text-anchor="start" x="844" y="-194.5" font-family="Helvetica,sans-Serif" font-size="10.00">FK morbidity_id</text>
<text text-anchor="start" x="941" y="-194.8" font-family="Helvetica,sans-Serif" font-size="9.00" fill="#666666">INTEGER</text>
<text text-anchor="start" x="844" y="-175.5" font-family="Helvetica,sans-Serif" font-size="10.00">births</text>
<text text-anchor="start" x="941" y="-175.8" font-family="Helvetica,sans-Serif" font-size="9.00" fill="#666666">INTEGER</text>
<polygon fill="none" stroke="black" points="838.5,-167.5 838.5,-303.5 993.5,-303.5 993.5,-167.5 838.5,-167.5"/>
</g>
<!-- fact_morbidity_age_bmi&#45;&gt;dim_year -->
<g id="edge10" class="edge">
<title>fact_morbidity_age_bmi&#45;&gt;dim_year</title>
<path fill="none" stroke="#999999" stroke-width="0.8" d="M897.09,-163.45C896.9,-146.26 901.54,-130.2 916,-121"/>
</g>
<!-- fact_morbidity_age_bmi&#45;&gt;dim_state -->
<g id="edge9" class="edge">
<title>fact_morbidity_age_bmi&#45;&gt;dim_state</title>
<path fill="none" stroke="#999999" stroke-width="0.8" d="M721,-120C710.71,-115.13 707.28,-104.88 707.25,-93.45"/>
<polygon fill="#999999" stroke="#999999" stroke-width="0.8" points="709.35,-93.48 707.53,-87.39 705.16,-93.29 709.35,-93.48"/>
</g>
<!-- dim_morbidity_status -->
<g id="node10" class="node">
<title>dim_morbidity_status</title>
<polygon fill="white" stroke="transparent" points="1216,-13.5 1216,-73.5 1358,-73.5 1358,-13.5 1216,-13.5"/>
<polygon fill="#4c72b0" stroke="transparent" points="1217,-52.5 1217,-72.5 1357,-72.5 1357,-52.5 1217,-52.5"/>
<text text-anchor="start" x="1221" y="-60.7" font-family="Helvetica,sans-Serif" font-weight="bold" font-size="11.00" fill="white">dim_morbidity_status</text>
<text text-anchor="start" x="1221" y="-40.5" font-family="Helvetica,sans-Serif" font-size="10.00">PK morbidity_id</text>
<text text-anchor="start" x="1310" y="-40.8" font-family="Helvetica,sans-Serif" font-size="9.00" fill="#666666">INTEGER</text>
<text text-anchor="start" x="1221" y="-21.5" font-family="Helvetica,sans-Serif" font-size="10.00">morbidity_label</text>
<text text-anchor="start" x="1310" y="-21.8" font-family="Helvetica,sans-Serif" font-size="9.00" fill="#666666">TEXT</text>
<polygon fill="none" stroke="black" points="1216,-13.5 1216,-73.5 1358,-73.5 1358,-13.5 1216,-13.5"/>
</g>
<!-- fact_morbidity_age_bmi&#45;&gt;dim_morbidity_status -->
<g id="edge6" class="edge">
<title>fact_morbidity_age_bmi&#45;&gt;dim_morbidity_status</title>
<path fill="none" stroke="#999999" stroke-width="0.8" d="M1001.64,-164.05C1007.69,-160.39 1013.84,-156.99 1020,-154 1074.4,-127.6 1104.23,-158.08 1152,-121"/>
</g>
<!-- dim_age_group -->
<g id="node11" class="node">
<title>dim_age_group</title>
<polygon fill="white" stroke="transparent" points="1410,-4 1410,-83 1550,-83 1550,-4 1410,-4"/>
<polygon fill="#4c72b0" stroke="transparent" points="1411,-61.5 1411,-81.5 1549,-81.5 1549,-61.5 1411,-61.5"/>
<text text-anchor="start" x="1434.5" y="-69.7" font-family="Helvetica,sans-Serif" font-weight="bold" font-size="11.00" fill="white">dim_age_group</text>
<text text-anchor="start" x="1415" y="-49.5" font-family="Helvetica,sans-Serif" font-size="10.00">PK age_group_id</text>
<text text-anchor="start" x="1505" y="-49.8" font-family="Helvetica,sans-Serif" font-size="9.00" fill="#666666">INTEGER</text>
<text text-anchor="start" x="1415" y="-30.5" font-family="Helvetica,sans-Serif" font-size="10.00">age_label</text>
<text text-anchor="start" x="1505" y="-30.8" font-family="Helvetica,sans-Serif" font-size="9.00" fill="#666666">TEXT</text>
<text text-anchor="start" x="1415" y="-11.5" font-family="Helvetica,sans-Serif" font-size="10.00">sort_order</text>
<text text-anchor="start" x="1505" y="-11.8" font-family="Helvetica,sans-Serif" font-size="9.00" fill="#666666">INTEGER</text>
<polygon fill="none" stroke="black" points="1410,-4 1410,-83 1550,-83 1550,-4 1410,-4"/>
</g>
<!-- fact_morbidity_age_bmi&#45;&gt;dim_age_group -->
<g id="edge8" class="edge">
<title>fact_morbidity_age_bmi&#45;&gt;dim_age_group</title>
<path fill="none" stroke="#999999" stroke-width="0.8" d="M1001.73,-163.42C1007.74,-159.93 1013.85,-156.75 1020,-154 1057.54,-137.22 1344.71,-99.13 1384,-87 1388.07,-85.74 1392.2,-84.36 1396.34,-82.89"/>
<polygon fill="#999999" stroke="#999999" stroke-width="0.8" points="1397.07,-84.86 1401.99,-80.83 1395.63,-80.91 1397.07,-84.86"/>
</g>
<!-- fact_morbidity_age_bmi&#45;&gt;dim_bmi_category -->
<g id="edge7" class="edge">
<title>fact_morbidity_age_bmi&#45;&gt;dim_bmi_category</title>
<path fill="none" stroke="#999999" stroke-width="0.8" d="M830.28,-164.97C824.22,-161.06 818.1,-157.36 812,-154 774.31,-133.25 759.89,-139.39 721,-121"/>
<path fill="none" stroke="#999999" stroke-width="0.8" d="M721,-120C586.15,-56.23 530.41,-128.04 387,-87 383.13,-85.89 379.22,-84.61 375.32,-83.21"/>
<polygon fill="#999999" stroke="#999999" stroke-width="0.8" points="375.96,-81.21 369.61,-81.06 374.48,-85.14 375.96,-81.21"/>
</g>
<!-- fact_morbidity_delivery_cesarean -->
<g id="node3" class="node">
<title>fact_morbidity_delivery_cesarean</title>
<polygon fill="white" stroke="transparent" points="570,-167.5 570,-303.5 786,-303.5 786,-167.5 570,-167.5"/>
<polygon fill="#c44e52" stroke="transparent" points="571,-282.5 571,-302.5 785,-302.5 785,-282.5 571,-282.5"/>
<text text-anchor="start" x="575" y="-290.7" font-family="Helvetica,sans-Serif" font-weight="bold" font-size="11.00" fill="white">fact_morbidity_delivery_cesarean</text>
<text text-anchor="start" x="575" y="-270.5" font-family="Helvetica,sans-Serif" font-size="10.00">FK year_id</text>
<text text-anchor="start" x="723" y="-270.8" font-family="Helvetica,sans-Serif" font-size="9.00" fill="#666666">INTEGER</text>
<text text-anchor="start" x="575" y="-251.5" font-family="Helvetica,sans-Serif" font-size="10.00">FK state_id</text>
<text text-anchor="start" x="723" y="-251.8" font-family="Helvetica,sans-Serif" font-size="9.00" fill="#666666">INTEGER</text>
<text text-anchor="start" x="575" y="-232.5" font-family="Helvetica,sans-Serif" font-size="10.00">FK delivery_method_id</text>
<text text-anchor="start" x="723" y="-232.8" font-family="Helvetica,sans-Serif" font-size="9.00" fill="#666666">INTEGER</text>
<text text-anchor="start" x="575" y="-213.5" font-family="Helvetica,sans-Serif" font-size="10.00">FK previous_cesarean_id</text>
<text text-anchor="start" x="723" y="-213.8" font-family="Helvetica,sans-Serif" font-size="9.00" fill="#666666">INTEGER</text>
<text text-anchor="start" x="575" y="-194.5" font-family="Helvetica,sans-Serif" font-size="10.00">FK morbidity_id</text>
<text text-anchor="start" x="723" y="-194.8" font-family="Helvetica,sans-Serif" font-size="9.00" fill="#666666">INTEGER</text>
<text text-anchor="start" x="575" y="-175.5" font-family="Helvetica,sans-Serif" font-size="10.00">births</text>
<text text-anchor="start" x="723" y="-175.8" font-family="Helvetica,sans-Serif" font-size="9.00" fill="#666666">INTEGER</text>
<polygon fill="none" stroke="black" points="570,-167.5 570,-303.5 786,-303.5 786,-167.5 570,-167.5"/>
</g>
<!-- fact_morbidity_delivery_cesarean&#45;&gt;dim_year -->
<g id="edge15" class="edge">
<title>fact_morbidity_delivery_cesarean&#45;&gt;dim_year</title>
<path fill="none" stroke="#999999" stroke-width="0.8" d="M793.44,-163.39C799.99,-160.07 806.53,-156.92 813,-154 856.82,-134.23 875.45,-146.81 916,-121"/>
</g>
<!-- fact_morbidity_delivery_cesarean&#45;&gt;dim_state -->
<g id="edge14" class="edge">
<title>fact_morbidity_delivery_cesarean&#45;&gt;dim_state</title>
<path fill="none" stroke="#999999" stroke-width="0.8" d="M664.29,-163.46C664.89,-148.18 668.6,-133.03 678,-121"/>
</g>
<!-- fact_morbidity_delivery_cesarean&#45;&gt;dim_delivery_method -->
<g id="edge13" class="edge">
<title>fact_morbidity_delivery_cesarean&#45;&gt;dim_delivery_method</title>
<path fill="none" stroke="#999999" stroke-width="0.8" d="M777.76,-163.36C793.13,-150.19 808.15,-135.87 821,-121"/>
</g>
<!-- fact_morbidity_delivery_cesarean&#45;&gt;dim_morbidity_status -->
<g id="edge11" class="edge">
<title>fact_morbidity_delivery_cesarean&#45;&gt;dim_morbidity_status</title>
<path fill="none" stroke="#999999" stroke-width="0.8" d="M788.92,-163.37C796.89,-159.82 804.96,-156.64 813,-154 884.91,-130.38 1092.21,-167.42 1152,-121"/>
<path fill="none" stroke="#999999" stroke-width="0.8" d="M1152,-120C1170.69,-105.49 1192.51,-92.02 1213.09,-80.6"/>
<polygon fill="#999999" stroke="#999999" stroke-width="0.8" points="1214.33,-82.31 1218.58,-77.58 1212.31,-78.63 1214.33,-82.31"/>
</g>
<!-- fact_morbidity_delivery_cesarean&#45;&gt;dim_previous_cesarean -->
<g id="edge12" class="edge">
<title>fact_morbidity_delivery_cesarean&#45;&gt;dim_previous_cesarean</title>
<path fill="none" stroke="#999999" stroke-width="0.8" d="M565.69,-163.41C558.47,-159.98 551.21,-156.8 544,-154 404.5,-99.79 358.01,-127.75 214,-87 205.95,-84.72 197.66,-82.15 189.39,-79.43"/>
<polygon fill="#999999" stroke="#999999" stroke-width="0.8" points="190.03,-77.43 183.68,-77.53 188.7,-81.42 190.03,-77.43"/>
</g>
<!-- fact_morbidity_payment_delivery -->
<g id="node4" class="node">
<title>fact_morbidity_payment_delivery</title>
<polygon fill="white" stroke="transparent" points="1045.5,-167.5 1045.5,-303.5 1258.5,-303.5 1258.5,-167.5 1045.5,-167.5"/>
<polygon fill="#c44e52" stroke="transparent" points="1047,-282.5 1047,-302.5 1258,-302.5 1258,-282.5 1047,-282.5"/>
<text text-anchor="start" x="1051" y="-290.7" font-family="Helvetica,sans-Serif" font-weight="bold" font-size="11.00" fill="white">fact_morbidity_payment_delivery</text>
<text text-anchor="start" x="1051" y="-270.5" font-family="Helvetica,sans-Serif" font-size="10.00">FK year_id</text>
<text text-anchor="start" x="1193" y="-270.8" font-family="Helvetica,sans-Serif" font-size="9.00" fill="#666666">INTEGER</text>
<text text-anchor="start" x="1051" y="-251.5" font-family="Helvetica,sans-Serif" font-size="10.00">FK state_id</text>
<text text-anchor="start" x="1193" y="-251.8" font-family="Helvetica,sans-Serif" font-size="9.00" fill="#666666">INTEGER</text>
<text text-anchor="start" x="1051" y="-232.5" font-family="Helvetica,sans-Serif" font-size="10.00">FK payment_id</text>
<text text-anchor="start" x="1193" y="-232.8" font-family="Helvetica,sans-Serif" font-size="9.00" fill="#666666">INTEGER</text>
<text text-anchor="start" x="1051" y="-213.5" font-family="Helvetica,sans-Serif" font-size="10.00">FK delivery_method_id</text>
<text text-anchor="start" x="1193" y="-213.8" font-family="Helvetica,sans-Serif" font-size="9.00" fill="#666666">INTEGER</text>
<text text-anchor="start" x="1051" y="-194.5" font-family="Helvetica,sans-Serif" font-size="10.00">FK morbidity_id</text>
<text text-anchor="start" x="1193" y="-194.8" font-family="Helvetica,sans-Serif" font-size="9.00" fill="#666666">INTEGER</text>
<text text-anchor="start" x="1051" y="-175.5" font-family="Helvetica,sans-Serif" font-size="10.00">births</text>
<text text-anchor="start" x="1193" y="-175.8" font-family="Helvetica,sans-Serif" font-size="9.00" fill="#666666">INTEGER</text>
<polygon fill="none" stroke="black" points="1045.5,-167.5 1045.5,-303.5 1258.5,-303.5 1258.5,-167.5 1045.5,-167.5"/>
</g>
<!-- fact_morbidity_payment_delivery&#45;&gt;dim_year -->
<g id="edge20" class="edge">
<title>fact_morbidity_payment_delivery&#45;&gt;dim_year</title>
<path fill="none" stroke="#999999" stroke-width="0.8" d="M1039.19,-163.33C1032.77,-160.03 1026.35,-156.89 1020,-154 975.87,-133.9 875.09,-147.03 916,-121"/>
</g>
<!-- fact_morbidity_payment_delivery&#45;&gt;dim_state -->
<g id="edge19" class="edge">
<title>fact_morbidity_payment_delivery&#45;&gt;dim_state</title>
<path fill="none" stroke="#999999" stroke-width="0.8" d="M1042.73,-163.44C1035.19,-159.93 1027.58,-156.73 1020,-154 924.09,-119.43 883.59,-167.77 793,-121 779.18,-113.86 766.5,-103.07 755.74,-91.82"/>
<polygon fill="#999999" stroke="#999999" stroke-width="0.8" points="757.18,-90.28 751.55,-87.32 754.1,-93.14 757.18,-90.28"/>
</g>
<!-- fact_morbidity_payment_delivery&#45;&gt;dim_delivery_method -->
<g id="edge17" class="edge">
<title>fact_morbidity_payment_delivery&#45;&gt;dim_delivery_method</title>
<path fill="none" stroke="#999999" stroke-width="0.8" d="M1042.28,-163.44C1034.89,-159.95 1027.42,-156.76 1020,-154 935.97,-122.76 762.36,-188.82 821,-121"/>
</g>
<!-- fact_morbidity_payment_delivery&#45;&gt;dim_morbidity_status -->
<g id="edge16" class="edge">
<title>fact_morbidity_payment_delivery&#45;&gt;dim_morbidity_status</title>
<path fill="none" stroke="#999999" stroke-width="0.8" d="M1134.29,-163.39C1134.43,-146.86 1138.93,-131.15 1152,-121"/>
</g>
<!-- dim_payment_source -->
<g id="node13" class="node">
<title>dim_payment_source</title>
<polygon fill="white" stroke="transparent" points="1602,-13.5 1602,-73.5 1740,-73.5 1740,-13.5 1602,-13.5"/>
<polygon fill="#4c72b0" stroke="transparent" points="1603,-52.5 1603,-72.5 1739,-72.5 1739,-52.5 1603,-52.5"/>
<text text-anchor="start" x="1607" y="-60.7" font-family="Helvetica,sans-Serif" font-weight="bold" font-size="11.00" fill="white">dim_payment_source</text>
<text text-anchor="start" x="1607" y="-40.5" font-family="Helvetica,sans-Serif" font-size="10.00">PK payment_id</text>
<text text-anchor="start" x="1692" y="-40.8" font-family="Helvetica,sans-Serif" font-size="9.00" fill="#666666">INTEGER</text>
<text text-anchor="start" x="1607" y="-21.5" font-family="Helvetica,sans-Serif" font-size="10.00">payment_label</text>
<text text-anchor="start" x="1692" y="-21.8" font-family="Helvetica,sans-Serif" font-size="9.00" fill="#666666">TEXT</text>
<polygon fill="none" stroke="black" points="1602,-13.5 1602,-73.5 1740,-73.5 1740,-13.5 1602,-13.5"/>
</g>
<!-- fact_morbidity_payment_delivery&#45;&gt;dim_payment_source -->
<g id="edge18" class="edge">
<title>fact_morbidity_payment_delivery&#45;&gt;dim_payment_source</title>
<path fill="none" stroke="#999999" stroke-width="0.8" d="M1263.91,-163.44C1270.93,-160.02 1278,-156.84 1285,-154 1407.99,-104.12 1450.17,-129.19 1576,-87 1582.36,-84.87 1588.88,-82.46 1595.37,-79.9"/>
<polygon fill="#999999" stroke="#999999" stroke-width="0.8" points="1596.53,-81.7 1601.31,-77.51 1594.96,-77.8 1596.53,-81.7"/>
</g>
<!-- fact_morbidity_prenatal_delivery -->
<g id="node5" class="node">
<title>fact_morbidity_prenatal_delivery</title>
<polygon fill="white" stroke="transparent" points="1311,-167.5 1311,-303.5 1523,-303.5 1523,-167.5 1311,-167.5"/>
<polygon fill="#c44e52" stroke="transparent" points="1312,-282.5 1312,-302.5 1522,-302.5 1522,-282.5 1312,-282.5"/>
<text text-anchor="start" x="1316" y="-290.7" font-family="Helvetica,sans-Serif" font-weight="bold" font-size="11.00" fill="white">fact_morbidity_prenatal_delivery</text>
<text text-anchor="start" x="1316" y="-270.5" font-family="Helvetica,sans-Serif" font-size="10.00">FK year_id</text>
<text text-anchor="start" x="1457" y="-270.8" font-family="Helvetica,sans-Serif" font-size="9.00" fill="#666666">INTEGER</text>
<text text-anchor="start" x="1316" y="-251.5" font-family="Helvetica,sans-Serif" font-size="10.00">FK state_id</text>
<text text-anchor="start" x="1457" y="-251.8" font-family="Helvetica,sans-Serif" font-size="9.00" fill="#666666">INTEGER</text>
<text text-anchor="start" x="1316" y="-232.5" font-family="Helvetica,sans-Serif" font-size="10.00">FK prenatal_timing_id</text>
<text text-anchor="start" x="1457" y="-232.8" font-family="Helvetica,sans-Serif" font-size="9.00" fill="#666666">INTEGER</text>
<text text-anchor="start" x="1316" y="-213.5" font-family="Helvetica,sans-Serif" font-size="10.00">FK delivery_method_id</text>
<text text-anchor="start" x="1457" y="-213.8" font-family="Helvetica,sans-Serif" font-size="9.00" fill="#666666">INTEGER</text>
<text text-anchor="start" x="1316" y="-194.5" font-family="Helvetica,sans-Serif" font-size="10.00">FK morbidity_id</text>
<text text-anchor="start" x="1457" y="-194.8" font-family="Helvetica,sans-Serif" font-size="9.00" fill="#666666">INTEGER</text>
<text text-anchor="start" x="1316" y="-175.5" font-family="Helvetica,sans-Serif" font-size="10.00">births</text>
<text text-anchor="start" x="1457" y="-175.8" font-family="Helvetica,sans-Serif" font-size="9.00" fill="#666666">INTEGER</text>
<polygon fill="none" stroke="black" points="1311,-167.5 1311,-303.5 1523,-303.5 1523,-167.5 1311,-167.5"/>
</g>
<!-- fact_morbidity_prenatal_delivery&#45;&gt;dim_year -->
<g id="edge25" class="edge">
<title>fact_morbidity_prenatal_delivery&#45;&gt;dim_year</title>
<path fill="none" stroke="#999999" stroke-width="0.8" d="M1109,-120C1093.97,-111.48 1094.41,-91.72 1098.39,-74.55"/>
<polygon fill="#999999" stroke="#999999" stroke-width="0.8" points="1100.52,-74.7 1099.99,-68.37 1096.45,-73.65 1100.52,-74.7"/>
</g>
<!-- fact_morbidity_prenatal_delivery&#45;&gt;dim_state -->
<g id="edge24" class="edge">
<title>fact_morbidity_prenatal_delivery&#45;&gt;dim_state</title>
<path fill="none" stroke="#999999" stroke-width="0.8" d="M1309.05,-163.42C1301.09,-159.82 1293.04,-156.63 1285,-154 1118.81,-99.7 1063.38,-160.24 893,-121 858.35,-113.02 822.07,-98.11 791.73,-83.56"/>
<polygon fill="#999999" stroke="#999999" stroke-width="0.8" points="792.45,-81.57 786.14,-80.84 790.62,-85.35 792.45,-81.57"/>
</g>
<!-- fact_morbidity_prenatal_delivery&#45;&gt;dim_delivery_method -->
<g id="edge22" class="edge">
<title>fact_morbidity_prenatal_delivery&#45;&gt;dim_delivery_method</title>
<path fill="none" stroke="#999999" stroke-width="0.8" d="M1306.84,-163.44C1299.58,-159.98 1292.27,-156.79 1285,-154 1210.7,-125.48 1178.25,-160.23 1109,-121"/>
<path fill="none" stroke="#999999" stroke-width="0.8" d="M1109,-120C1103.96,-117.15 1055.16,-98.06 1007.9,-79.8"/>
<polygon fill="#999999" stroke="#999999" stroke-width="0.8" points="1008.5,-77.78 1002.15,-77.57 1006.99,-81.69 1008.5,-77.78"/>
</g>
<!-- fact_morbidity_prenatal_delivery&#45;&gt;dim_morbidity_status -->
<g id="edge21" class="edge">
<title>fact_morbidity_prenatal_delivery&#45;&gt;dim_morbidity_status</title>
<path fill="none" stroke="#999999" stroke-width="0.8" d="M1305.52,-163.38C1298.68,-160 1291.81,-156.84 1285,-154 1228.8,-130.54 1103.89,-158.35 1152,-121"/>
</g>
<!-- dim_prenatal_care_timing -->
<g id="node14" class="node">
<title>dim_prenatal_care_timing</title>
<polygon fill="white" stroke="transparent" points="1792.5,-4 1792.5,-83 1959.5,-83 1959.5,-4 1792.5,-4"/>
<polygon fill="#4c72b0" stroke="transparent" points="1794,-61.5 1794,-81.5 1959,-81.5 1959,-61.5 1794,-61.5"/>
<text text-anchor="start" x="1798" y="-69.7" font-family="Helvetica,sans-Serif" font-weight="bold" font-size="11.00" fill="white">dim_prenatal_care_timing</text>
<text text-anchor="start" x="1798" y="-49.5" font-family="Helvetica,sans-Serif" font-size="10.00">PK prenatal_timing_id</text>
<text text-anchor="start" x="1914" y="-49.8" font-family="Helvetica,sans-Serif" font-size="9.00" fill="#666666">INTEGER</text>
<text text-anchor="start" x="1798" y="-30.5" font-family="Helvetica,sans-Serif" font-size="10.00">timing_label</text>
<text text-anchor="start" x="1914" y="-30.8" font-family="Helvetica,sans-Serif" font-size="9.00" fill="#666666">TEXT</text>
<text text-anchor="start" x="1798" y="-11.5" font-family="Helvetica,sans-Serif" font-size="10.00">sort_order</text>
<text text-anchor="start" x="1914" y="-11.8" font-family="Helvetica,sans-Serif" font-size="9.00" fill="#666666">INTEGER</text>
<polygon fill="none" stroke="black" points="1792.5,-4 1792.5,-83 1959.5,-83 1959.5,-4 1792.5,-4"/>
</g>
<!-- fact_morbidity_prenatal_delivery&#45;&gt;dim_prenatal_care_timing -->
<g id="edge23" class="edge">
<title>fact_morbidity_prenatal_delivery&#45;&gt;dim_prenatal_care_timing</title>
<path fill="none" stroke="#999999" stroke-width="0.8" d="M1530.29,-163.48C1536.88,-160.12 1543.48,-156.93 1550,-154 1641.67,-112.78 1671.07,-120.02 1766,-87 1770.12,-85.57 1774.32,-84.08 1778.55,-82.55"/>
<polygon fill="#999999" stroke="#999999" stroke-width="0.8" points="1779.42,-84.47 1784.34,-80.45 1777.98,-80.52 1779.42,-84.47"/>
</g>
<!-- fact_prenatal_care_access -->
<g id="node6" class="node">
<title>fact_prenatal_care_access</title>
<polygon fill="white" stroke="transparent" points="1575.5,-158 1575.5,-313 1746.5,-313 1746.5,-158 1575.5,-158"/>
<polygon fill="#c44e52" stroke="transparent" points="1577,-291.5 1577,-311.5 1746,-311.5 1746,-291.5 1577,-291.5"/>
<text text-anchor="start" x="1581" y="-299.7" font-family="Helvetica,sans-Serif" font-weight="bold" font-size="11.00" fill="white">fact_prenatal_care_access</text>
<text text-anchor="start" x="1581" y="-279.5" font-family="Helvetica,sans-Serif" font-size="10.00">FK year_id</text>
<text text-anchor="start" x="1699" y="-279.8" font-family="Helvetica,sans-Serif" font-size="9.00" fill="#666666">INTEGER</text>
<text text-anchor="start" x="1581" y="-260.5" font-family="Helvetica,sans-Serif" font-size="10.00">FK division_id</text>
<text text-anchor="start" x="1699" y="-260.8" font-family="Helvetica,sans-Serif" font-size="9.00" fill="#666666">INTEGER</text>
<text text-anchor="start" x="1581" y="-241.5" font-family="Helvetica,sans-Serif" font-size="10.00">FK age_group_id</text>
<text text-anchor="start" x="1699" y="-241.8" font-family="Helvetica,sans-Serif" font-size="9.00" fill="#666666">INTEGER</text>
<text text-anchor="start" x="1581" y="-222.5" font-family="Helvetica,sans-Serif" font-size="10.00">FK payment_id</text>
<text text-anchor="start" x="1699" y="-222.8" font-family="Helvetica,sans-Serif" font-size="9.00" fill="#666666">INTEGER</text>
<text text-anchor="start" x="1581" y="-203.5" font-family="Helvetica,sans-Serif" font-size="10.00">FK prenatal_timing_id</text>
<text text-anchor="start" x="1699" y="-203.8" font-family="Helvetica,sans-Serif" font-size="9.00" fill="#666666">INTEGER</text>
<text text-anchor="start" x="1581" y="-184.5" font-family="Helvetica,sans-Serif" font-size="10.00">births</text>
<text text-anchor="start" x="1699" y="-184.8" font-family="Helvetica,sans-Serif" font-size="9.00" fill="#666666">INTEGER</text>
<text text-anchor="start" x="1581" y="-165.5" font-family="Helvetica,sans-Serif" font-size="10.00">avg_prenatal_visits</text>
<text text-anchor="start" x="1699" y="-165.8" font-family="Helvetica,sans-Serif" font-size="9.00" fill="#666666">REAL</text>
<polygon fill="none" stroke="black" points="1575.5,-158 1575.5,-313 1746.5,-313 1746.5,-158 1575.5,-158"/>
</g>
<!-- fact_prenatal_care_access&#45;&gt;dim_year -->
<g id="edge30" class="edge">
<title>fact_prenatal_care_access&#45;&gt;dim_year</title>
<path fill="none" stroke="#999999" stroke-width="0.8" d="M1567.4,-162.95C1561.32,-159.66 1555.17,-156.63 1549,-154 1399.75,-90.22 1343.35,-140.19 1190,-87 1177.88,-82.8 1165.34,-77.01 1153.86,-71.07"/>
<polygon fill="#999999" stroke="#999999" stroke-width="0.8" points="1154.6,-69.08 1148.31,-68.14 1152.64,-72.8 1154.6,-69.08"/>
</g>
<!-- fact_prenatal_care_access&#45;&gt;dim_age_group -->
<g id="edge28" class="edge">
<title>fact_prenatal_care_access&#45;&gt;dim_age_group</title>
<path fill="none" stroke="#999999" stroke-width="0.8" d="M1584.24,-153.92C1564.08,-132.76 1542.98,-110.61 1525.09,-91.83"/>
<polygon fill="#999999" stroke="#999999" stroke-width="0.8" points="1526.27,-90.02 1520.61,-87.13 1523.23,-92.92 1526.27,-90.02"/>
</g>
<!-- fact_prenatal_care_access&#45;&gt;dim_payment_source -->
<g id="edge27" class="edge">
<title>fact_prenatal_care_access&#45;&gt;dim_payment_source</title>
<path fill="none" stroke="#999999" stroke-width="0.8" d="M1754.73,-210.06C1799.87,-193.02 1849.78,-165.2 1876,-121"/>
<path fill="none" stroke="#999999" stroke-width="0.8" d="M1876,-120C1901.83,-76.47 1814.45,-104.61 1767,-87 1761.05,-84.79 1754.94,-82.4 1748.82,-79.91"/>
<polygon fill="#999999" stroke="#999999" stroke-width="0.8" points="1749.56,-77.94 1743.21,-77.6 1747.96,-81.82 1749.56,-77.94"/>
</g>
<!-- fact_prenatal_care_access&#45;&gt;dim_prenatal_care_timing -->
<g id="edge26" class="edge">
<title>fact_prenatal_care_access&#45;&gt;dim_prenatal_care_timing</title>
<path fill="none" stroke="#999999" stroke-width="0.8" d="M1876,-120C1880.72,-112.05 1882.84,-102.74 1883.43,-93.44"/>
<polygon fill="#999999" stroke="#999999" stroke-width="0.8" points="1885.53,-93.4 1883.61,-87.34 1881.33,-93.27 1885.53,-93.4"/>
</g>
<!-- dim_census_division -->
<g id="node16" class="node">
<title>dim_census_division</title>
<polygon fill="white" stroke="transparent" points="2012,-4 2012,-83 2146,-83 2146,-4 2012,-4"/>
<polygon fill="#4c72b0" stroke="transparent" points="2013,-61.5 2013,-81.5 2145,-81.5 2145,-61.5 2013,-61.5"/>
<text text-anchor="start" x="2017" y="-69.7" font-family="Helvetica,sans-Serif" font-weight="bold" font-size="11.00" fill="white">dim_census_division</text>
<text text-anchor="start" x="2017" y="-49.5" font-family="Helvetica,sans-Serif" font-size="10.00">PK division_id</text>
<text text-anchor="start" x="2099" y="-49.8" font-family="Helvetica,sans-Serif" font-size="9.00" fill="#666666">INTEGER</text>
<text text-anchor="start" x="2017" y="-30.5" font-family="Helvetica,sans-Serif" font-size="10.00">division_name</text>
<text text-anchor="start" x="2099" y="-30.8" font-family="Helvetica,sans-Serif" font-size="9.00" fill="#666666">TEXT</text>
<text text-anchor="start" x="2017" y="-11.5" font-family="Helvetica,sans-Serif" font-size="10.00">division_code</text>
<text text-anchor="start" x="2099" y="-11.8" font-family="Helvetica,sans-Serif" font-size="9.00" fill="#666666">TEXT</text>
<polygon fill="none" stroke="black" points="2012,-4 2012,-83 2146,-83 2146,-4 2012,-4"/>
</g>
<!-- fact_prenatal_care_access&#45;&gt;dim_census_division -->
<g id="edge29" class="edge">
<title>fact_prenatal_care_access&#45;&gt;dim_census_division</title>
<path fill="none" stroke="#999999" stroke-width="0.8" d="M1876,-120C1902.04,-76.1 1938.23,-104.98 1986,-87 1990.05,-85.47 1994.18,-83.85 1998.33,-82.17"/>
<polygon fill="#999999" stroke="#999999" stroke-width="0.8" points="1999.25,-84.06 2004,-79.83 1997.65,-80.18 1999.25,-84.06"/>
</g>
<!-- dim_medicaid_expansion -->
<g id="node17" class="node">
<title>dim_medicaid_expansion</title>
<polygon fill="white" stroke="transparent" points="413.5,-4 413.5,-83 574.5,-83 574.5,-4 413.5,-4"/>
<polygon fill="#4c72b0" stroke="transparent" points="415,-61.5 415,-81.5 574,-81.5 574,-61.5 415,-61.5"/>
<text text-anchor="start" x="419" y="-69.7" font-family="Helvetica,sans-Serif" font-weight="bold" font-size="11.00" fill="white">dim_medicaid_expansion</text>
<text text-anchor="start" x="419" y="-49.5" font-family="Helvetica,sans-Serif" font-size="10.00">PK state_id</text>
<text text-anchor="start" x="528" y="-49.8" font-family="Helvetica,sans-Serif" font-size="9.00" fill="#666666">INTEGER</text>
<text text-anchor="start" x="419" y="-30.5" font-family="Helvetica,sans-Serif" font-size="10.00">expanded_medicaid</text>
<text text-anchor="start" x="528" y="-30.8" font-family="Helvetica,sans-Serif" font-size="9.00" fill="#666666">INTEGER</text>
<text text-anchor="start" x="419" y="-11.5" font-family="Helvetica,sans-Serif" font-size="10.00">expansion_date</text>
<text text-anchor="start" x="528" y="-11.8" font-family="Helvetica,sans-Serif" font-size="9.00" fill="#666666">TEXT</text>
<polygon fill="none" stroke="black" points="413.5,-4 413.5,-83 574.5,-83 574.5,-4 413.5,-4"/>
</g>
<!-- dim_medicaid_expansion&#45;&gt;dim_state -->
<g id="edge31" class="edge">
<title>dim_medicaid_expansion&#45;&gt;dim_state</title>
<path fill="none" stroke="#888888" stroke-width="0.8" stroke-dasharray="5,2" d="M582.67,-43.5C604.28,-43.5 627.14,-43.5 647.87,-43.5"/>
<polygon fill="#888888" stroke="#888888" stroke-width="0.8" points="647.95,-45.6 653.95,-43.5 647.95,-41.4 647.95,-45.6"/>
<text text-anchor="middle" x="618.25" y="-49.1" font-family="Helvetica,sans-Serif" font-size="8.00">enriches</text>
</g>
</g>
</svg>
